<?xml version="1.0" standalone="no"?>
<!DOCTYPE svg PUBLIC "-//W3C//DTD SVG 20010904//EN"
 "http://www.w3.org/TR/2001/REC-SVG-20010904/DTD/svg10.dtd">
<svg version="1.0" xmlns="http://www.w3.org/2000/svg"
 width="1024.000000pt" height="1024.000000pt" viewBox="0 0 1024.000000 1024.000000"
 preserveAspectRatio="xMidYMid meet">

<g transform="translate(0.000000,1024.000000) scale(0.100000,-0.100000)"
fill="#000000" stroke="none">
<path d="M3675 7684 c-379 -57 -651 -188 -896 -433 -216 -216 -349 -463 -408
-757 -24 -115 -46 -388 -37 -439 l7 -34 52 33 c60 38 128 62 207 73 l55 8 3
85 c16 449 273 837 687 1035 174 84 318 115 531 115 231 0 398 -40 597 -142
200 -103 334 -223 511 -458 100 -133 102 -135 141 -135 39 0 40 2 121 115 106
148 237 287 344 367 154 114 366 205 554 238 113 19 346 20 457 0 363 -63 702
-321 875 -665 64 -128 101 -281 119 -490 l6 -66 72 -12 c105 -17 140 -29 196
-67 l51 -34 0 92 c-2 453 -152 837 -445 1132 -216 217 -455 347 -767 417 -91
20 -128 23 -328 22 -205 0 -236 -2 -352 -27 -329 -70 -582 -207 -811 -440 -54
-55 -99 -98 -100 -96 -1 2 -25 29 -52 59 -227 250 -502 405 -851 480 -79 17
-141 22 -304 25 -113 2 -218 1 -235 -1z"/>
<path d="M3147 6366 c-49 -18 -64 -32 -99 -85 l-28 -45 0 -1075 c0 -720 4
-1088 11 -1114 12 -44 59 -101 103 -125 45 -25 327 -25 372 0 45 25 92 82 104
127 7 27 10 377 8 1103 l-3 1064 -26 49 c-18 35 -39 59 -74 80 -47 29 -52 30
-189 33 -101 1 -152 -2 -179 -12z"/>
<path d="M6766 6365 c-47 -16 -91 -57 -117 -108 -19 -36 -19 -67 -17 -1120 l3
-1082 22 -41 c25 -48 73 -91 111 -102 15 -4 90 -7 167 -7 124 0 145 3 180 22
46 24 65 43 91 93 18 33 19 82 22 1110 2 963 1 1079 -13 1117 -21 54 -49 89
-88 110 -42 21 -304 27 -361 8z"/>
<path d="M2430 5878 c-18 -13 -42 -35 -53 -49 -18 -25 -19 -50 -20 -680 -1
-640 -1 -656 19 -689 11 -19 35 -45 54 -57 31 -21 44 -23 187 -23 168 0 188 5
228 58 19 26 20 45 23 690 3 735 5 712 -62 753 -27 16 -52 19 -187 19 -145 0
-158 -2 -189 -22z"/>
<path d="M7454 5890 c-11 -4 -33 -22 -47 -40 l-27 -32 0 -671 c0 -649 1 -673
20 -704 33 -55 61 -63 228 -63 138 0 151 2 182 23 18 12 43 35 54 50 21 28 21
37 24 676 l3 647 -23 43 c-38 72 -67 81 -243 80 -82 0 -159 -4 -171 -9z"/>
<path d="M1994 5425 c-64 -33 -83 -61 -96 -143 -12 -76 -5 -248 12 -304 27
-90 102 -137 218 -138 l72 0 0 305 0 305 -78 0 c-64 0 -87 -5 -128 -25z"/>
<path d="M3770 5360 c0 -47 3 -183 7 -302 l6 -218 1349 0 1348 0 0 307 0 306
-1355 -4 -1355 -4 0 -85z"/>
<path d="M8044 5378 c3 -40 5 -178 6 -305 l0 -233 68 0 c107 1 171 39 208 125
22 51 32 265 15 339 -22 98 -95 145 -224 146 l-79 0 6 -72z"/>
<path d="M3899 4094 c-23 -30 -72 -83 -108 -116 l-66 -59 200 -197 c110 -108
412 -407 670 -664 l471 -468 44 0 c25 1 55 6 66 13 12 7 318 307 682 667 l660
654 -45 40 c-25 22 -73 71 -106 110 -33 39 -64 71 -68 71 -5 0 -269 -260 -587
-577 -318 -318 -583 -578 -588 -578 -5 0 -270 261 -589 580 -319 319 -583 580
-586 580 -4 0 -26 -25 -50 -56z"/>
</g>
</svg>
